<svg xmlns="http://www.w3.org/2000/svg" viewBox="0 0 1280 800" width="1280" height="800" role="img" aria-label="採用管理画面の再構成モック（ダミーデータ）" font-family="Inter, Helvetica Neue, Arial, Noto Sans JP, sans-serif"><style>
  .bg{fill:#F4F2ED}.pl{fill:#EBE8E0}.card{fill:#FFFFFF}
  .hair{stroke:#CFCABE;stroke-width:1}.hair2{stroke:#A9A396;stroke-width:1}
  .ink{fill:#15171A}.t2{fill:#5C6066}.t3{fill:#8A8E93}
  .lbl{font-size:13px;letter-spacing:.08em;fill:#8A8E93}
  .h{font-size:19px;fill:#15171A}.b{font-size:15px;fill:#15171A}.s{font-size:13px;fill:#5C6066}
  .mono{font-family:ui-monospace,SFMono-Regular,Menlo,Consolas,monospace;font-size:12px;fill:#8A8E93}
  .cap{font-size:12px;fill:#8A8E93}
</style><rect class="bg" width="1280" height="800"/><rect x="0" y="0" width="1280" height="56" fill="#1F3F7A"/><text x="40" y="35" font-size="14" letter-spacing=".1em" fill="#F4F2ED">RECRUITMENT MANAGEMENT — RECONSTRUCTED</text><text x="40" y="108" class="h" font-size="22">応募から合否まで、1 つの管理画面で追う</text><line x1="40" y1="128" x2="1240" y2="128" class="hair2"/><text x="40" y="168" class="lbl">応募者一覧</text><rect x="40" y="184" width="770" height="470" class="card"/><rect x="40" y="184" width="770" height="470" fill="none" class="hair"/><text x="76" y="216" class="lbl">応募者</text><text x="300" y="216" class="lbl">選考ステータス</text><text x="520" y="216" class="lbl">面接予定</text><text x="700" y="216" class="lbl">合否</text><line x1="64" y1="232" x2="786" y2="232" class="hair2"/><text x="76" y="272" class="b">応募者 A</text><rect x="300" y="254" width="104" height="26" rx="13" fill="#DCE2EE"/><text x="352.0" y="272" text-anchor="middle" font-size="12" fill="#1F3F7A">最終面接</text><text x="520" y="272" class="s">4/18 14:00</text><text x="700" y="272" class="s">—</text><line x1="64" y1="294" x2="786" y2="294" class="hair"/><text x="76" y="338" class="b">応募者 B</text><rect x="300" y="320" width="104" height="26" rx="13" fill="#DCE2EE"/><text x="352.0" y="338" text-anchor="middle" font-size="12" fill="#1F3F7A">一次面接</text><text x="520" y="338" class="s">4/19 10:30</text><text x="700" y="338" class="s">—</text><line x1="64" y1="360" x2="786" y2="360" class="hair"/><text x="76" y="404" class="b">応募者 C</text><rect x="300" y="386" width="104" height="26" rx="13" fill="#EBE8E0"/><text x="352.0" y="404" text-anchor="middle" font-size="12" fill="#5C6066">書類選考</text><text x="520" y="404" class="s">未設定</text><text x="700" y="404" class="s">—</text><line x1="64" y1="426" x2="786" y2="426" class="hair"/><text x="76" y="470" class="b">応募者 D</text><rect x="300" y="452" width="104" height="26" rx="13" fill="#DCE9E2"/><text x="352.0" y="470" text-anchor="middle" font-size="12" fill="#14654A">合格</text><text x="520" y="470" class="s">—</text><text x="700" y="470" class="s">内定</text><line x1="64" y1="492" x2="786" y2="492" class="hair"/><text x="76" y="536" class="b">応募者 E</text><rect x="300" y="518" width="104" height="26" rx="13" fill="#EBE8E0"/><text x="352.0" y="536" text-anchor="middle" font-size="12" fill="#5C6066">書類選考</text><text x="520" y="536" class="s">未設定</text><text x="700" y="536" class="s">—</text><line x1="64" y1="558" x2="786" y2="558" class="hair"/><text x="76" y="602" class="b">応募者 F</text><rect x="300" y="584" width="104" height="26" rx="13" fill="#F2E1D8"/><text x="352.0" y="602" text-anchor="middle" font-size="12" fill="#A2401C">見送り</text><text x="520" y="602" class="s">—</text><text x="700" y="602" class="s">不採用</text><line x1="64" y1="624" x2="786" y2="624" class="hair"/><text x="850" y="168" class="lbl">面接予定（カレンダー連携）</text><rect x="850" y="184" width="390" height="280" class="card"/><rect x="850" y="184" width="390" height="280" fill="none" class="hair"/><rect x="874" y="208" width="3" height="52" fill="#1F3F7A"/><text x="894" y="224" class="b">4 / 18 (木)</text><text x="894" y="244" class="s">14:00 — 15:00</text><text x="894" y="262" class="mono">応募者 A ／ 最終面接</text><rect x="874" y="296" width="3" height="52" fill="#1F3F7A"/><text x="894" y="312" class="b">4 / 19 (金)</text><text x="894" y="332" class="s">10:30 — 11:15</text><text x="894" y="350" class="mono">応募者 B ／ 一次面接</text><rect x="874" y="384" width="3" height="52" fill="#1F3F7A"/><text x="894" y="400" class="b">4 / 22 (月)</text><text x="894" y="420" class="s">13:00 — 13:45</text><text x="894" y="438" class="mono">応募者 C ／ 一次面接</text><rect x="850" y="488" width="390" height="166" class="pl"/><rect x="850" y="488" width="390" height="166" fill="none" class="hair"/><text x="874" y="524" class="lbl">個人情報の保持</text><text x="874" y="556" class="b">保持期限を過ぎた応募者情報は</text><text x="874" y="580" class="b">自動で匿名化する</text><text x="874" y="614" class="mono">retention: 180 days — anonymize</text><text x="40" y="700" class="cap">Reconstructed interface / dummy data — 実在の応募者・求人・発注元の情報は含まれない</text></svg>